<svg version="1.2" baseProfile="tiny-ps" xmlns="http://www.w3.org/2000/svg" viewBox="0 0 241 80" width="241" height="80">
	<title>New Project</title>
	<style>
		tspan { white-space:pre }
		.shp0 { fill: #231e1f } 
	</style>
	<path id="Layer copy" fill-rule="evenodd" class="shp0" d="M27.31 6.73C27.42 13.51 27.36 24.77 27.36 28.62C27.36 32.81 27.36 40.16 27.23 44.79C27.11 48.63 26.46 52.17 24.63 55.12C23.09 57.57 20.45 59.09 19.82 58.46C19.28 57.88 20 56.39 20.46 54.19C20.91 52.02 21.16 49.83 21.16 42.87C21.16 37.72 21.3 13.07 21.3 10.32C21.3 8.79 21.33 7.96 20.7 8.55C17.37 11.76 14.72 19.08 15.32 25.63C15.79 30.7 18.07 31.24 17.28 32.83C16.6 34.18 8.32 30.05 10.31 20.28C11.88 12.56 16.85 6.42 21.38 4.25C23.27 3.34 27.28 5.08 27.31 6.73ZM230 40.82C230.85 40.82 231.14 42.04 230.94 43.63C230.15 50.23 227.8 52.73 224.93 52.73C223.59 52.73 219.73 51.98 218.4 45.26C217.42 40.3 217.66 31.23 217.77 28.46C217.77 28.38 217.69 28 217.49 28.49C216.98 29.82 215.56 33.46 214.7 37.49C213.41 43.65 213.29 47.94 213.36 48.63C213.49 50.06 212.01 50.28 211.31 50.28C210.2 50.28 208.83 50.18 207.74 47.94C207.35 47.15 206.84 44.68 206.47 40.5C205.96 34.8 205.89 30.57 205.86 29.13C205.86 28.42 205.48 28.53 205.16 29.21C204.57 30.41 203.34 32.83 202.01 39.08C201.22 42.82 201.3 47.84 201.17 50.82C201.12 51.96 200.75 52.4 200.26 52.51C199.58 52.67 197.72 53.04 195.88 52.27C195.48 52.08 194.91 51.72 194.81 51.43C194.64 50.95 194.55 49.45 194.48 47.61C192.94 51.79 191.05 52.73 189.04 52.73C187.13 52.73 183.77 51.21 183.08 46.26C183.08 46.26 182.68 47.24 181.95 48.39C178.73 53.44 172.39 54.73 169.12 48.77C168.96 48.48 168.81 48.16 168.67 47.84C167.51 50.75 165.35 52.72 163.09 52.72C161.15 52.72 157.89 51.21 156.44 46.53C154.33 39.7 156.64 29.43 156.78 28.8C156.9 28.28 156.72 28.14 156.1 28.18C154.16 28.32 152.33 28.3 152.33 28.3C151.26 32.19 149.17 37.19 147.21 40.91C145.42 44.32 143.47 47.24 141.73 49.54C141.78 52.55 141.82 55.35 141.85 57.56C141.93 63.07 140.92 68.63 139.39 71.22C137.64 74.18 134.8 76.28 131.49 75.97C128.37 75.69 124.25 73.52 124.59 67.68C124.87 63.1 128.62 59.16 133.54 53.97C134.66 52.79 136.48 50.88 136.48 50.88L136.39 47.73C136.27 47.93 136.14 48.14 136 48.39C132.8 53.45 126.44 54.73 123.17 48.77C122.95 48.37 122.75 47.96 122.56 47.52C121.01 51.54 118.8 52.71 116.64 52.71C114.72 52.71 111.37 51.03 110.91 46.26C110.91 46.26 110.75 46.82 109.76 48.39C106.57 53.45 100.22 54.73 96.94 48.77C96.25 47.52 95.72 46.05 95.37 44.36C94.12 48.51 91.27 52.73 88.42 52.73C84.17 52.73 81.73 48.42 81.15 40.82C77.94 49.62 73.33 53.04 67.56 52.82C66.08 52.76 63.77 52.27 62.69 51.7C61.44 51.07 60.23 50.34 60.55 48.95C60.89 47.53 61.49 46.38 62.54 45.47C62.94 45.13 63.62 45.22 64.05 45.56C64.87 46.18 65.22 46.6 66.03 47.15C68.82 49.03 70.39 47.09 70.8 45.21C71.35 42.76 70.53 40.17 68.03 37.45C66.95 36.28 65.87 35.18 64.92 34.16C63.54 36.83 61.63 40.52 59.66 44.29C56.49 50.33 53.54 52.72 51.45 52.72C48.71 52.72 46.8 50.49 47.2 38.39C47.35 33.88 47.57 28.57 47.64 26.44C47.65 25.95 47.36 25.97 47.1 26.26C45.62 27.95 42.49 32.68 40.09 42.38C38.55 48.62 38.54 50.29 38.35 51.83C38.2 53.12 35.26 52.7 34.73 52.57C34.16 52.42 33.81 52.09 33.5 51.67C33.2 51.23 32.95 50.5 32.81 49.6C32.65 48.7 32.62 46.65 32.62 44.88L32.74 21.75C32.74 21 33.09 20.62 33.81 20.62C35.28 20.62 36.95 21.41 37.58 21.8C37.95 22.03 38.1 22.36 38.1 22.71L38.02 37.5C38.02 37.5 38.94 34.68 39.41 33.13C43.11 20.82 47.03 20.62 48.39 20.62C49.3 20.62 50.86 21.64 51.6 22.15C52.81 23.01 53.53 23.96 53.48 25.61C53.31 30.61 53.1 35.46 53.1 38.67C53.1 42.4 53.09 46.38 54.23 46.38C55.65 46.38 57.54 42.46 60.04 37.49C60.93 35.71 62 33.4 62.77 31.69L62.47 31.28C61.19 29.44 60.85 27.66 61.5 25.28C62.35 22.19 65.17 19.3 68.59 20.2C70.67 20.75 70.63 23.24 69.79 25.41C68.59 28.47 67.25 29.99 67.25 29.99C69.57 31.95 71.64 33.76 72.7 34.72C75.55 37.29 77.13 40.34 76.36 44.4C76.36 44.4 79.96 41.09 80.99 34.95L80.99 33.88C80.99 30.42 81.07 19.18 81.07 19.18C79.21 19.12 76.4 19.06 74.79 18.99C73.38 18.93 74.48 13.92 75.49 13.92C76.58 13.92 80.3 14.17 81.4 14.17C81.4 14.17 81.51 7.76 81.7 5.58C81.83 4.14 82.5 3.79 83.99 4.14C85.06 4.4 85.97 4.63 86.99 5.13C87.41 5.33 88.13 5.66 88.08 6.31C88.03 7.08 87.79 14.41 87.79 14.41C87.79 14.41 90.49 14.64 91.47 14.67C92.62 14.69 95.54 14.88 95.95 15.07C96.86 15.53 96.01 19.17 95.13 19.22C93.38 19.32 92.17 19.29 90.86 19.3C90.34 19.3 87.69 19.36 87.69 19.36C87.62 20.43 87.2 31.48 87.2 39.23C87.2 45.06 88.37 47.79 89.6 47.79C91.69 47.79 94.25 43.09 94.83 39.01C94.83 37.58 94.91 36.05 95.08 34.4C95.68 28.72 96.86 26.16 98.32 23.85C100.55 20.32 103.47 19.44 106.28 20.4C107.33 20.75 108.9 21.98 109.87 23.74L109.87 22.48C109.87 21.92 110.38 21.19 111.1 21.12C111.64 21.08 112.36 21.15 113.18 21.38C113.97 21.58 115.65 22.15 115.66 23.27C115.67 23.64 115.6 25.25 115.57 27.35C115.5 31 115.36 33.19 115.36 38.22C115.36 46.85 116.42 48.74 118.28 48.74C119.74 48.74 121.02 46.08 121.47 43.55C121.05 41.01 121 38 121.3 34.45C121.63 30.65 122.79 26.69 124.54 23.85C126.76 20.3 129.7 19.44 132.52 20.4C133.55 20.75 135.12 21.98 136.1 23.74L136.1 22.59C136.08 21.74 136.8 21.01 137.98 21.12C138.92 21.2 139.83 21.46 140.6 21.8C141.47 22.18 141.88 22.5 141.9 23.31C141.9 23.68 141.82 25.25 141.78 27.35C141.75 29.49 141.66 35.44 141.68 43C141.68 43.52 141.68 44.06 141.69 44.58C142.6 43.15 143.31 41.81 144.24 39.99C145.97 36.6 147.64 31.9 148.32 28.31C148.32 28.31 146.24 26.93 146.58 23.99C146.79 22.14 147.35 21.12 148.18 20.25C149.56 18.79 153.88 18.41 153.42 22.98C153.33 23.85 153.23 24.35 153.23 24.35C155.01 24.04 156.97 23.65 158.33 23.28C160.25 22.77 161.58 23.19 162.21 24C162.89 24.91 163.17 25.84 162.83 27.63C162.04 31.82 161.33 34.72 161.22 38.84C161.06 45.12 162.46 48.74 164.39 48.74C165.72 48.74 166.94 47.41 167.6 44.15C167.06 41.27 166.96 37.86 167.27 34.49C167.68 29.89 168.74 26.69 170.5 23.85C172.72 20.3 175.66 19.44 178.47 20.4C179.52 20.75 181.09 21.98 182.06 23.74L182.06 22.53C182.06 21.74 182.59 21.17 183.35 21.12C183.89 21.09 184.57 21.16 185.36 21.38C186.14 21.58 187.83 22.15 187.85 23.27C187.85 23.64 187.78 25.25 187.74 27.35C187.68 31 187.55 33.19 187.55 38.22C187.55 46.85 188.43 48.74 190.28 48.74C192.14 48.74 193.85 44.22 194.37 40.89L194.37 39.87C194.37 32.62 194.53 22.27 194.53 22.15C194.53 21.27 194.76 20.65 195.71 20.65C196.48 20.65 198.3 21.16 199.23 21.47C199.43 21.54 200.11 21.92 200.11 23.06C200.09 26.08 200.09 34.04 200.09 34.04C200.09 34.04 200.67 32.04 201.51 29.09C202.56 25.46 203.56 22.4 204.41 21.27C205.41 19.87 208.18 21.05 209.09 21.7C210.5 22.72 210.77 23.98 210.78 25.42C210.83 32.92 211.19 36.48 211.34 38.45C211.37 38.74 211.5 38.72 211.51 38.59C211.77 36.15 212.83 30.11 215.58 22.52C216.55 19.82 218.49 20.65 219.84 21.2C222.95 22.51 223.27 23.83 223.21 25.16C222.91 31.65 222.87 38.18 223.1 41.72C223.41 46.22 224.58 48.48 225.87 48.48C227.04 48.48 227.94 47.45 228.8 42.9C229.05 41.6 229.35 40.82 230 40.82L230 40.82ZM106.18 25.21C103.56 24.93 101.88 28.01 101.22 32.38C100.76 35.33 100.4 40.79 101.49 44.78C102.98 50.32 106.39 49.11 108.12 45.27C109.06 43.15 109.66 40.23 109.81 36.74C110.16 29.47 108.85 25.51 106.18 25.21ZM136.04 36.8C136.42 28.61 135.09 25.21 132.4 25.21C129.62 25.21 128.08 28.95 127.44 32.97C126.95 36.06 126.71 40.97 127.7 44.78C129.16 50.34 132.66 49.13 134.33 45.27C135.15 43.4 135.89 40.08 136.04 36.8ZM136.73 59.28C136.75 56.66 136.73 55.55 136.73 55.55C132.46 60.4 129.54 64.36 128.92 68.25C128.22 72.63 131.6 74.27 134.11 72.1C135.87 70.56 136.69 65.29 136.73 59.28L136.73 59.28ZM178.35 25.21C175.63 24.93 173.99 28.17 173.4 32.47C172.82 36.69 172.86 41.75 173.66 44.78C175.14 50.33 178.62 49.13 180.29 45.27C181.16 43.27 181.86 40.45 182.01 36.83C182.3 29.47 181.04 25.5 178.35 25.21Z" />
</svg>